<?xml version="1.0" encoding="UTF-8" standalone="no"?>
<svg
   width="71.703003mm"
   height="79.049797mm"
   version="1.1"
   viewBox="0 0 71.703001 79.049798"
   xml:space="preserve"
   id="svg10"
   sodipodi:docname="hexa-commerce.svg"
   inkscape:version="1.4 (86a8ad7, 2024-10-11)"
   xmlns:inkscape="http://www.inkscape.org/namespaces/inkscape"
   xmlns:sodipodi="http://sodipodi.sourceforge.net/DTD/sodipodi-0.dtd"
   xmlns="http://www.w3.org/2000/svg"
   xmlns:svg="http://www.w3.org/2000/svg"><defs
     id="defs10" /><sodipodi:namedview
     id="namedview10"
     pagecolor="#ffffff"
     bordercolor="#666666"
     borderopacity="1.0"
     inkscape:showpageshadow="2"
     inkscape:pageopacity="0.0"
     inkscape:pagecheckerboard="0"
     inkscape:deskcolor="#d1d1d1"
     inkscape:document-units="mm"
     inkscape:zoom="1.5981713"
     inkscape:cx="266.86752"
     inkscape:cy="72.895816"
     inkscape:window-width="2560"
     inkscape:window-height="1361"
     inkscape:window-x="-9"
     inkscape:window-y="-9"
     inkscape:window-maximized="1"
     inkscape:current-layer="svg10" /><g
     transform="translate(-85.043,-39.982)"
     id="g10"><g
       id="g9"><path
         d="M 120.1,118.76 C 108.424,111.5122 96.795,104.184 85.043,97.061 V 62.289 c 11.94,-7.4014 23.816,-14.905 35.755,-22.307 12.137,7.1786 24.022,14.837 35.948,22.381 v 34.991 c -12.045,6.8733 -23.572,14.673 -35.564,21.64 l -0.56313,0.0378 z m 8.6116,-8.7876 c 7.9953,-5.1519 16.408,-9.7133 24.128,-15.256 0.11181,-10.16 -0.0763,-20.321 -0.12959,-30.481 -10.588,-6.5988 -21.109,-13.312 -31.819,-19.711 -10.801,6.5104 -21.415,13.327 -32.149,19.947 0.0455,10.064 0.0911,20.128 0.1366,30.191 10.399,6.7898 21.031,13.217 31.451,19.976 2.3028,-0.23098 4.076,-2.3218 6.1677,-3.2942 0.73781,-0.45733 1.4756,-0.91466 2.2134,-1.372 z m -6.2248,-17.378 c 0.006,-5.9588 -0.28564,-11.931 -0.006,-17.882 3.0302,1.9464 6.0257,3.95 9.1281,5.781 0.0452,7.4321 0.0238,14.866 0.1323,22.297 -3.0225,1.9084 -6.0483,3.8117 -9.0651,5.7291 -0.0632,-5.3082 -0.12648,-10.616 -0.18972,-15.925 z m -12.321,9.9359 c 0,0 -0.21422,-14.86 -0.2582,-21.946 3.0897,-1.9822 6.1918,-3.9451 9.2661,-5.9511 v 33.654 z m 25.148,-10.647 v -8.9839 l 6.7564,4.7557 -0.0172,8.5989 -6.7358,4.2887 0.003,-6.0701 c 0,0 -0.006,-1.7262 -0.007,-2.5893 z m -35.998,3.7036 c 0.0288,-2.7365 0.0145,-8.2098 0.0145,-8.2098 l 7.2412,-4.9182 -0.0974,17.891 z m 45.419,-0.98554 c 0,0 -0.0657,-12.34 -0.17797,-18.477 -0.002,-2.3759 -0.005,-4.7517 -0.007,-7.1276 -7.4343,-4.6466 -22.471,-13.668 -22.471,-13.668 l 4.279,-2.3806 1.8717,1.1881 c 0,0 13.616,8.7699 20.577,12.895 v 25.035 l -4.0728,2.5355 z m -51.987,-2.7358 -0.0172,-3.5873 c 0,0 0.0783,-14.221 0.11747,-21.332 9.1965,-5.6707 27.593,-17.01 27.593,-17.01 l 0.11834,4.5547 -5.5538,3.3619 c 0,0 -11.976,7.4118 -17.925,11.18 -0.0346,8.4989 -0.13229,25.497 -0.13229,25.497 z"
         fill="#4cc2ab"
         id="path1" /><path
         transform="scale(0.26458)"
         d="m 417.01,425.62 c -43.41,-27.089 -92.715,-57.477 -94.157,-58.03 -0.83565,-0.32068 -0.98112,-10.137 -0.98112,-66.212 v -65.835 l 134.71,-84.142 18.58,11.236 c 20.162,12.193 52.071,32.099 91.665,57.183 l 25.169,15.945 0.004,66.076 0.004,66.076 -8.1596,4.7179 c -13.169,7.6144 -28.938,17.235 -64.756,39.507 -45.516,28.302 -60.445,37.169 -62.514,37.129 -1.0154,-0.0198 -17.238,-9.7169 -39.568,-23.652 z m 42.904,6.6422 c 1.42,-0.58907 5.863,-3.2038 9.8734,-5.8105 10.079,-6.551 29.236,-18.438 53.472,-33.179 25.242,-15.353 31.612,-19.38 44.618,-28.205 l 10.243,-6.9506 v -27.555 c 0,-15.155 -0.20685,-41.179 -0.45965,-57.831 l -0.45966,-30.276 -45.547,-28.421 c -25.051,-15.632 -52.136,-32.389 -60.189,-37.239 l -14.642,-8.8176 -17.34,10.631 c -9.537,5.8471 -36.917,22.818 -60.845,37.714 l -43.505,27.083 -0.0319,22.569 c -0.0175,12.413 0.17478,38.247 0.42734,57.408 l 0.45919,34.839 13.255,8.5127 c 7.2904,4.682 28.829,18.316 47.864,30.299 19.035,11.982 39.659,25.042 45.833,29.021 6.1734,3.9792 11.938,7.2448 12.809,7.257 0.87163,0.0122 2.7466,-0.45979 4.1666,-1.0489 z"
         fill="#052c46"
         id="path2" /><g
         fill="#085073"
         id="g5"><path
           transform="scale(0.26458)"
           d="m 358.68,352.05 -7.2916,-4.6478 -0.14925,-47.139 -0.14924,-47.139 51.369,-31.597 c 28.253,-17.378 51.679,-31.701 52.058,-31.828 0.4306,-0.1446 0.68669,2.8528 0.68232,7.986 l -0.007,8.2175 -15.097,9.185 c -8.3034,5.0517 -28.222,17.395 -44.263,27.43 l -29.166,18.245 -0.34722,47.967 -0.34722,47.967 z"
           id="path3" /><path
           transform="scale(0.26458)"
           d="m 433.27,398.02 -16.727,-10.664 -0.45858,-41.041 c -0.28915,-25.878 -0.21277,-41.286 0.20675,-41.706 0.36592,-0.36592 8.0995,-5.4413 17.186,-11.279 l 16.52,-10.613 0.18061,31.558 c 0.0993,17.357 0.0993,45.699 0,62.983 l -0.18061,31.425 z"
           id="path4" /><path
           transform="scale(0.26458)"
           d="m 463.98,407.15 c -0.20925,-1.0706 -0.59348,-29.418 -0.85383,-62.995 -0.4079,-52.605 -0.33691,-60.996 0.51334,-60.669 0.5427,0.20825 6.289,3.7878 12.77,7.9544 6.4806,4.1667 13.686,8.7258 16.011,10.131 l 4.2281,2.5555 0.45797,19.288 c 0.25188,10.609 0.45137,29.601 0.44332,42.205 l -0.0147,22.916 -16.027,10.069 c -8.8146,5.5381 -16.279,10.164 -16.587,10.28 -0.308,0.116 -0.73182,-0.66553 -0.94108,-1.7361 z"
           id="path5" /></g><g
         fill="#1392bc"
         id="g8"><path
           transform="scale(0.26458)"
           d="m 388.32,369.6 -13.067,-8.7752 0.36326,-15.307 0.36327,-15.307 12.009,-8.1932 c 6.6049,-4.5063 12.556,-8.5031 13.224,-8.8819 1.15,-0.65175 1.2153,1.0838 1.2153,32.321 0,18.156 -0.23438,32.989 -0.52083,32.964 -0.28646,-0.0256 -6.4008,-3.9953 -13.587,-8.8216 z"
           id="path6" /><path
           transform="scale(0.26458)"
           d="m 511.45,346.52 c 0,-17.951 0.0781,-32.635 0.1736,-32.632 0.0955,0.004 5.6423,3.8665 12.326,8.5836 l 12.153,8.5767 0.18601,16.343 0.186,16.343 -12.093,7.7122 c -6.6512,4.2417 -12.282,7.7122 -12.512,7.7122 -0.23054,0 -0.41915,-14.687 -0.41915,-32.639 z"
           id="path7" /><path
           transform="scale(0.26458)"
           d="m 547.32,349.07 c -0.24571,-4.264 -0.44932,-25.878 -0.45246,-48.03 l -0.006,-40.277 -7.8099,-4.8081 c -6.7894,-4.1799 -26.615,-16.234 -66.36,-40.349 l -10.634,-6.4518 6.8905,-3.8673 c 3.7898,-2.127 7.337,-4.0387 7.8828,-4.2481 0.56341,-0.21621 7.8842,4.0138 16.938,9.7868 17.09,10.897 56.887,35.843 64.035,40.138 l 4.3402,2.608 v 94.183 l -1.5625,1.0158 c -0.85937,0.55867 -4.0944,2.599 -7.1889,4.5341 l -5.6264,3.5183 z"
           id="path8" /></g></g></g></svg>
